<svg xmlns="http://www.w3.org/2000/svg" viewBox="0 0 800 560" preserveAspectRatio="xMidYMid slice" role="img">
  <defs>
    <linearGradient id="p5-bg" x1="0" y1="0" x2="1" y2="1">
      <stop offset="0%" stop-color="#13100c"></stop>
      <stop offset="100%" stop-color="#0f0c09"></stop>
    </linearGradient>
    <radialGradient id="p5-glow" cx="0.2" cy="0.2" r="0.9">
      <stop offset="0%" stop-color="rgba(219,140,78,0.35)"></stop>
      <stop offset="60%" stop-color="rgba(219,140,78,0)"></stop>
    </radialGradient>
    <pattern id="p5-grid" x="0" y="0" width="40" height="40" patternUnits="userSpaceOnUse">
      <path d="M40 0H0V40" fill="none" stroke="rgba(236,230,215,0.10)" stroke-width="0.5" opacity="1"></path>
    </pattern>
  </defs>
  <rect width="800" height="560" fill="url(#p5-bg)"></rect>
  <rect width="800" height="560" fill="url(#p5-grid)"></rect>
  <rect width="800" height="560" fill="url(#p5-glow)"></rect>
  
  <rect x="80" y="120" width="300" height="340" rx="6" fill="#1a140e" stroke="rgba(236,230,215,0.10)"></rect>
  <rect x="420" y="120" width="300" height="340" rx="6" fill="#1a140e" stroke="rgba(236,230,215,0.10)"></rect>
  <rect x="100" y="150" width="120" height="6" rx="2" fill="rgba(239,80,80,0.5)"></rect>
            <rect x="440" y="150" width="120" height="6" rx="2" fill="#db8c4e"></rect><rect x="100" y="188" width="143" height="6" rx="2" fill="rgba(236,230,215,0.18)"></rect>
            <rect x="440" y="188" width="139" height="6" rx="2" fill="rgba(236,230,215,0.18)"></rect><rect x="100" y="226" width="166" height="6" rx="2" fill="rgba(236,230,215,0.18)"></rect>
            <rect x="440" y="226" width="158" height="6" rx="2" fill="rgba(236,230,215,0.18)"></rect><rect x="100" y="264" width="189" height="6" rx="2" fill="rgba(239,80,80,0.5)"></rect>
            <rect x="440" y="264" width="177" height="6" rx="2" fill="#db8c4e"></rect><rect x="100" y="302" width="212" height="6" rx="2" fill="rgba(236,230,215,0.18)"></rect>
            <rect x="440" y="302" width="196" height="6" rx="2" fill="rgba(236,230,215,0.18)"></rect><rect x="100" y="340" width="235" height="6" rx="2" fill="rgba(236,230,215,0.18)"></rect>
            <rect x="440" y="340" width="215" height="6" rx="2" fill="rgba(236,230,215,0.18)"></rect><rect x="100" y="378" width="258" height="6" rx="2" fill="rgba(239,80,80,0.5)"></rect>
            <rect x="440" y="378" width="234" height="6" rx="2" fill="#db8c4e"></rect><rect x="100" y="416" width="141" height="6" rx="2" fill="rgba(236,230,215,0.18)"></rect>
            <rect x="440" y="416" width="253" height="6" rx="2" fill="rgba(236,230,215,0.18)"></rect>
  <text x="100" y="138" fill="rgba(236,230,215,0.55)" font-family="ui-monospace, monospace" font-size="11">- before.diff</text>
  <text x="440" y="138" fill="#db8c4e" font-family="ui-monospace, monospace" font-size="11">+ after.diff</text>
  <text x="80" y="100" fill="#ece6d7" font-family="ui-monospace, monospace" font-size="20" font-weight="600">agent drafts · I arbitrate</text>
  <text x="80" y="500" fill="#db8c4e" font-family="ui-monospace, monospace" font-size="13">▸ AI-native review loop</text>

</svg>